<?xml version="1.0" encoding="UTF-8" standalone="no"?>
<!-- Generator: Adobe Illustrator 16.0.0, SVG Export Plug-In . SVG Version: 6.00 Build 0)  -->
<!DOCTYPE svg  PUBLIC '-//W3C//DTD SVG 1.1//EN'  'http://www.w3.org/Graphics/SVG/1.1/DTD/svg11.dtd'>
<svg id="Layer_2" xmlns="http://www.w3.org/2000/svg" xml:space="preserve" height="56px" viewBox="0 0 46 56" width="46px" version="1.1" y="0px" x="0px" xmlns:xlink="http://www.w3.org/1999/xlink" enable-background="new 0 0 46 56">
		<path d="m18.373 1.48c5.316-1.39 11.348 0.292 15.112 4.322 4.675 4.558 5.857 12.18 2.85 17.961-4.705 9.54-9.367 19.094-14.161 28.584-4.662-9.387-9.276-18.787-13.945-28.174-2.147-4.079-2.453-9.103-0.66-13.361 1.813-4.621 6.01-8.15 10.804-9.332zm0.903 8.005c-2.702 1.063-4.704 3.696-4.919 6.601-0.535 4.294 3.133 8.532 7.469 8.573 4.864 0.452 9.2-4.501 8.116-9.269-0.661-4.759-6.282-7.837-10.666-5.905z" fill="#306E94"/>
</svg>
