<?xml version="1.0" encoding="utf-8"?>
<!-- Generator: Adobe Illustrator 16.0.0, SVG Export Plug-In . SVG Version: 6.00 Build 0)  -->
<!DOCTYPE svg PUBLIC "-//W3C//DTD SVG 1.1//EN" "http://www.w3.org/Graphics/SVG/1.1/DTD/svg11.dtd">
<svg version="1.1" id="altibbi" xmlns="http://www.w3.org/2000/svg" xmlns:xlink="http://www.w3.org/1999/xlink" x="0px" y="0px"
	 width="154px" height="47.67px" viewBox="0 0 154 47.67" enable-background="new 0 0 154 47.67" xml:space="preserve">
<g>
	<g>
		<line fill="none" stroke="#fff" stroke-width="1.8611" x1="97.881" y1="4.038" x2="97.881" y2="33.586"/>
		<line fill="none" stroke="#fff" stroke-width="1.8611" x1="53.168" y1="4.038" x2="53.168" y2="33.586"/>
		<path fill="none" stroke="#fff" stroke-width="1.8611" d="M80.957,27.384c0,2.692-2.183,4.874-4.874,4.874H48.278
			c-2.691,0-4.874-2.182-4.874-4.874V9.815"/>
		<path fill="none" stroke="#fff" stroke-width="1.8611" d="M90.706,4.038V25.07v2.313c0,2.692-2.183,4.874-4.874,4.874
			c-2.693,0-4.875-2.182-4.875-4.874V16.135c0-2.692-2.183-4.874-4.874-4.874H73.77L60.225,11.26c-3.897,0-7.057,3.16-7.057,7.057
			v13.992"/>
		<path fill="none" stroke="#fff" stroke-width="1.8611" d="M43.404,27.384c0,2.692-2.183,4.874-4.875,4.874
			s-4.875-2.182-4.875-4.874V16.135c0-2.692-2.182-4.875-4.874-4.875c-2.692,0-4.875,2.183-4.875,4.875v11.249
			c0,2.692-2.183,4.874-4.875,4.874H7.555c-2.692,0-4.875-2.182-4.875-4.874V16.135c0-2.692,2.183-4.875,4.875-4.875h2.302"/>
		<circle fill="#fff" cx="11.307" cy="39.669" r="1.755"/>
		<circle fill="#fff" cx="15.921" cy="39.669" r="1.755"/>
		<circle fill="#fff" cx="43.44" cy="39.669" r="1.755"/>
	</g>
	<g>
		<path fill="#fff" d="M72.929,39.191c0.25-0.23,0.539-0.402,0.868-0.518c0.329-0.115,0.658-0.173,0.987-0.173
			c0.341,0,0.636,0.043,0.883,0.128c0.247,0.086,0.449,0.201,0.606,0.346c0.158,0.145,0.275,0.311,0.351,0.498
			c0.075,0.188,0.113,0.384,0.113,0.588v2.387c0,0.164,0.003,0.316,0.01,0.453c0.006,0.139,0.016,0.271,0.03,0.396h-0.79
			c-0.02-0.237-0.029-0.474-0.029-0.71h-0.02c-0.197,0.302-0.431,0.516-0.7,0.641s-0.582,0.188-0.937,0.188
			c-0.217,0-0.425-0.029-0.622-0.089c-0.197-0.06-0.37-0.147-0.518-0.267c-0.148-0.117-0.265-0.265-0.35-0.438
			c-0.086-0.175-0.128-0.376-0.128-0.606c0-0.303,0.067-0.556,0.203-0.76c0.134-0.204,0.318-0.37,0.552-0.498
			c0.233-0.129,0.506-0.221,0.819-0.276c0.312-0.056,0.646-0.084,1.001-0.084h0.651v-0.198c0-0.117-0.023-0.236-0.069-0.355
			c-0.046-0.117-0.115-0.225-0.207-0.319c-0.092-0.095-0.207-0.171-0.345-0.228c-0.138-0.055-0.303-0.084-0.493-0.084
			c-0.171,0-0.321,0.018-0.449,0.051c-0.128,0.032-0.245,0.073-0.35,0.123c-0.105,0.049-0.201,0.106-0.286,0.172
			c-0.085,0.066-0.167,0.129-0.247,0.188L72.929,39.191z M75.435,41.047c-0.21,0-0.426,0.012-0.646,0.034
			c-0.221,0.022-0.421,0.067-0.602,0.134c-0.181,0.064-0.329,0.157-0.444,0.275c-0.115,0.119-0.172,0.27-0.172,0.454
			c0,0.27,0.09,0.464,0.271,0.581c0.181,0.119,0.426,0.178,0.735,0.178c0.243,0,0.451-0.04,0.622-0.122
			c0.171-0.083,0.309-0.189,0.414-0.321c0.105-0.131,0.181-0.277,0.227-0.439c0.046-0.16,0.069-0.32,0.069-0.478v-0.296H75.435z"/>
		<path fill="#fff" d="M77.917,36.291h0.888v7.005h-0.888V36.291z"/>
		<path fill="#fff" d="M82.572,39.389h-1.273v2.121c0,0.132,0.004,0.262,0.01,0.39c0.007,0.129,0.031,0.244,0.074,0.346
			s0.108,0.185,0.197,0.247s0.219,0.094,0.39,0.094c0.105,0,0.214-0.01,0.325-0.03c0.112-0.02,0.214-0.056,0.307-0.108v0.809
			c-0.105,0.06-0.242,0.1-0.41,0.123s-0.297,0.035-0.389,0.035c-0.343,0-0.607-0.048-0.795-0.143
			c-0.188-0.096-0.325-0.219-0.414-0.371c-0.089-0.15-0.142-0.319-0.158-0.508c-0.016-0.187-0.024-0.376-0.024-0.566v-2.438h-1.026
			v-0.77h1.026v-1.313h0.888v1.313h1.273V39.389z"/>
		<path fill="#fff" d="M83.469,36.942c0-0.178,0.063-0.33,0.191-0.458c0.129-0.129,0.281-0.193,0.459-0.193
			s0.331,0.064,0.459,0.193c0.129,0.128,0.192,0.28,0.192,0.458s-0.063,0.331-0.192,0.459c-0.128,0.128-0.281,0.192-0.459,0.192
			s-0.33-0.064-0.459-0.192C83.532,37.273,83.469,37.12,83.469,36.942z M83.676,38.619h0.888v4.677h-0.888V38.619z"/>
		<path fill="#fff" d="M85.869,36.291h0.888v3h0.021c0.157-0.244,0.384-0.436,0.68-0.578c0.296-0.141,0.611-0.212,0.947-0.212
			c0.361,0,0.688,0.063,0.981,0.188c0.293,0.126,0.542,0.298,0.75,0.519c0.207,0.221,0.366,0.48,0.478,0.779
			c0.113,0.299,0.168,0.623,0.168,0.971c0,0.35-0.055,0.672-0.168,0.967c-0.111,0.297-0.271,0.557-0.478,0.779
			c-0.208,0.225-0.457,0.398-0.75,0.523s-0.62,0.188-0.981,0.188c-0.316,0-0.623-0.068-0.922-0.207
			c-0.3-0.139-0.535-0.332-0.705-0.582h-0.021v0.671h-0.888V36.291z M88.296,42.586c0.237,0,0.45-0.041,0.642-0.124
			c0.19-0.082,0.352-0.193,0.482-0.335c0.132-0.142,0.234-0.313,0.307-0.514c0.072-0.2,0.107-0.418,0.107-0.656
			c0-0.236-0.035-0.455-0.107-0.655s-0.175-0.372-0.307-0.513c-0.131-0.143-0.292-0.254-0.482-0.336
			c-0.191-0.082-0.404-0.123-0.642-0.123s-0.45,0.041-0.642,0.123c-0.19,0.082-0.352,0.193-0.483,0.336
			c-0.132,0.141-0.233,0.313-0.306,0.513s-0.108,0.419-0.108,0.655c0,0.238,0.036,0.456,0.108,0.656
			c0.072,0.201,0.174,0.372,0.306,0.514s0.293,0.253,0.483,0.335C87.846,42.545,88.059,42.586,88.296,42.586z"/>
		<path fill="#fff" d="M91.521,36.291h0.888v3h0.021c0.157-0.244,0.385-0.436,0.68-0.578c0.297-0.141,0.611-0.212,0.947-0.212
			c0.361,0,0.689,0.063,0.981,0.188c0.293,0.126,0.543,0.298,0.75,0.519s0.366,0.48,0.479,0.779s0.168,0.623,0.168,0.971
			c0,0.35-0.056,0.672-0.168,0.967c-0.112,0.297-0.271,0.557-0.479,0.779c-0.207,0.225-0.457,0.398-0.75,0.523
			c-0.292,0.125-0.62,0.188-0.981,0.188c-0.315,0-0.623-0.068-0.922-0.207c-0.3-0.139-0.535-0.332-0.705-0.582h-0.021v0.671h-0.888
			V36.291z M93.948,42.586c0.237,0,0.45-0.041,0.642-0.124c0.19-0.082,0.352-0.193,0.483-0.335s0.233-0.313,0.306-0.514
			c0.072-0.2,0.108-0.418,0.108-0.656c0-0.236-0.036-0.455-0.108-0.655s-0.174-0.372-0.306-0.513
			c-0.132-0.143-0.293-0.254-0.483-0.336c-0.191-0.082-0.404-0.123-0.642-0.123s-0.45,0.041-0.642,0.123
			c-0.19,0.082-0.352,0.193-0.482,0.336c-0.133,0.141-0.234,0.313-0.307,0.513s-0.108,0.419-0.108,0.655
			c0,0.238,0.036,0.456,0.108,0.656c0.072,0.201,0.174,0.372,0.307,0.514c0.131,0.142,0.292,0.253,0.482,0.335
			C93.498,42.545,93.711,42.586,93.948,42.586z"/>
		<path fill="#fff" d="M97.125,36.942c0-0.178,0.064-0.33,0.192-0.458c0.128-0.129,0.28-0.193,0.458-0.193
			s0.331,0.064,0.459,0.193c0.129,0.128,0.192,0.28,0.192,0.458s-0.063,0.331-0.192,0.459c-0.128,0.128-0.281,0.192-0.459,0.192
			s-0.33-0.064-0.458-0.192S97.125,37.12,97.125,36.942z M97.332,38.619h0.888v4.677h-0.888V38.619z"/>
	</g>
	<g>
		<path fill="#69C3C4" d="M149.094,38.098c0.094-0.125,0.189-0.25,0.283-0.376C149.283,37.848,149.188,37.973,149.094,38.098z"/>
		<path fill="#69C3C4" d="M111.232,38.096c-0.095-0.123-0.189-0.247-0.281-0.373C111.043,37.849,111.138,37.973,111.232,38.096z"/>
		<path fill="#69C3C4" d="M114.279,20.703c-0.185-1.894,0.177-4.577,1.744-6.415c1.021-1.2,2.411-1.865,4.131-1.979
			c1.861,0.007,3.406,0.708,4.471,2.029c1.299,1.613,1.801,4.015,1.309,6.269c-1.029,4.72-4.412,8.464-7.068,10.774
			c-0.004,0.004-0.008,0.008-0.013,0.012c-0.829-1.012-1.559-2.08-2.183-3.195C115.346,25.83,114.541,23.309,114.279,20.703z
			 M141.461,31.381c0.004,0.004,0.007,0.006,0.011,0.01c0.829-1.012,1.56-2.078,2.183-3.193c1.326-2.367,2.131-4.889,2.393-7.492
			c0.185-1.897-0.178-4.58-1.744-6.418c-1.021-1.199-2.411-1.865-4.131-1.979c-1.861,0.007-3.406,0.708-4.471,2.029
			c-1.299,1.613-1.801,4.015-1.309,6.269C135.422,25.326,138.805,29.07,141.461,31.381z M118.641,34.027
			c-2.237,1.731-4.753,3.238-7.205,4.328c4.365,5.538,11.129,9.098,18.728,9.098s14.362-3.56,18.728-9.098
			c-2.453-1.09-4.969-2.598-7.208-4.33c-0.401,0.422-0.821,0.832-1.257,1.23c-1.714,1.571-3.625,2.902-5.524,3.847
			c-1.788,0.89-3.47,1.38-4.735,1.38h-0.006c-1.268,0-2.951-0.49-4.74-1.38c-1.9-0.944-3.811-2.274-5.525-3.847
			C119.461,34.858,119.043,34.448,118.641,34.027z M142.948,32.596c2.21,1.697,4.694,3.161,7.089,4.181
			c2.502-3.771,3.963-8.294,3.963-13.16c0-13.165-10.672-23.836-23.837-23.836s-23.837,10.672-23.837,23.836
			c0,4.866,1.461,9.389,3.963,13.16c2.394-1.019,4.877-2.481,7.087-4.179c-0.899-1.098-1.69-2.256-2.369-3.469
			c-1.454-2.598-2.337-5.369-2.624-8.239c-0.288-2.961,0.531-5.892,2.189-7.839c1.355-1.591,3.256-2.506,5.493-2.647l0.06-0.002
			c2.471,0,4.54,0.947,5.984,2.74c1.651,2.051,2.297,5.067,1.687,7.871c-1.14,5.228-4.803,9.304-7.677,11.804
			c0.342,0.354,0.697,0.698,1.064,1.035c2.561,2.349,6.466,4.725,8.979,4.725h0.004c2.506,0,6.41-2.376,8.973-4.725
			c0.367-0.338,0.723-0.684,1.065-1.037c-2.874-2.5-6.534-6.575-7.674-11.802c-0.611-2.804,0.035-5.82,1.687-7.871
			c1.444-1.792,3.514-2.74,5.984-2.74l0.06,0.002c2.237,0.141,4.138,1.056,5.493,2.647c1.658,1.947,2.478,4.878,2.189,7.842
			c-0.287,2.867-1.172,5.638-2.626,8.236C144.639,30.34,143.848,31.498,142.948,32.596z"/>
		<path fill="#69C3C4" d="M149.713,37.247c0.096-0.138,0.193-0.273,0.286-0.413C149.906,36.974,149.809,37.109,149.713,37.247z"/>
		<path fill="#69C3C4" d="M110.326,36.834c0.094,0.139,0.19,0.275,0.285,0.412C110.516,37.109,110.42,36.973,110.326,36.834z"/>
		<path fill="transparent" d="M110.951,37.723c0.092,0.126,0.187,0.25,0.281,0.373c0.066,0.087,0.129,0.176,0.197,0.262
			c0.002-0.001,0.004-0.002,0.004-0.002c2.454-1.09,4.97-2.597,7.207-4.328c0.402,0.421,0.82,0.831,1.254,1.229
			c1.715,1.572,3.625,2.902,5.525,3.847c1.789,0.89,3.473,1.38,4.74,1.38h0.006c1.266,0,2.947-0.49,4.735-1.38
			c1.899-0.944,3.811-2.275,5.524-3.847c0.436-0.398,0.855-0.809,1.257-1.23c2.239,1.732,4.755,3.24,7.208,4.33
			c0,0,0.004,0.001,0.006,0.002c0.067-0.086,0.131-0.175,0.197-0.26c0.094-0.125,0.189-0.25,0.283-0.376
			c0.114-0.157,0.226-0.315,0.336-0.475c0.096-0.138,0.193-0.273,0.286-0.413c0.013-0.019,0.026-0.037,0.04-0.057
			c-0.001,0-0.002,0-0.002,0c-2.395-1.021-4.879-2.484-7.089-4.182c0.899-1.098,1.69-2.256,2.369-3.467
			c1.454-2.598,2.339-5.369,2.626-8.236c0.288-2.964-0.531-5.895-2.189-7.842c-1.355-1.591-3.256-2.506-5.493-2.647l-0.06-0.002
			c-2.471,0-4.54,0.947-5.984,2.74c-1.651,2.051-2.298,5.067-1.687,7.871c1.14,5.227,4.8,9.302,7.674,11.802
			c-0.343,0.354-0.698,0.699-1.065,1.037c-2.563,2.349-6.467,4.725-8.973,4.725h-0.004c-2.513,0-6.418-2.376-8.979-4.725
			c-0.367-0.337-0.723-0.682-1.064-1.035c2.874-2.5,6.537-6.576,7.677-11.804c0.61-2.804-0.035-5.82-1.687-7.871
			c-1.444-1.792-3.514-2.74-5.984-2.74l-0.06,0.002c-2.237,0.141-4.138,1.056-5.493,2.647c-1.658,1.947-2.478,4.878-2.189,7.839
			c0.287,2.87,1.17,5.641,2.624,8.239c0.679,1.213,1.47,2.371,2.369,3.469c-2.21,1.697-4.693,3.16-7.087,4.179
			c0,0-0.001,0.001-0.002,0.001c0.014,0.02,0.027,0.037,0.039,0.057c0.094,0.139,0.19,0.275,0.285,0.412
			C110.723,37.406,110.835,37.565,110.951,37.723z M134.393,20.606c-0.492-2.254,0.01-4.656,1.309-6.269
			c1.064-1.321,2.609-2.022,4.471-2.029c1.72,0.114,3.109,0.78,4.131,1.979c1.566,1.839,1.929,4.521,1.744,6.418
			c-0.262,2.603-1.066,5.125-2.393,7.492c-0.623,1.115-1.354,2.182-2.183,3.193c-0.004-0.004-0.007-0.006-0.011-0.01
			C138.805,29.07,135.422,25.326,134.393,20.606z M116.67,28.197c-1.324-2.367-2.129-4.888-2.391-7.495
			c-0.185-1.894,0.177-4.577,1.744-6.415c1.021-1.2,2.411-1.865,4.131-1.979c1.861,0.007,3.406,0.708,4.471,2.029
			c1.299,1.613,1.801,4.015,1.309,6.269c-1.029,4.72-4.412,8.464-7.068,10.774c-0.004,0.004-0.008,0.008-0.013,0.012
			C118.023,30.381,117.294,29.313,116.67,28.197z"/>
	</g>
</g>
</svg>
